<svg xmlns="http://www.w3.org/2000/svg" height="352.75" viewBox="0 0 1195 352.75" width="1195" xmlns:xlink="http://www.w3.org/1999/xlink"><defs><path id="a" d="M0 0h1195v352.75H0z"/></defs><clipPath id="b"><use overflow="visible" xlink:href="#a"/></clipPath><path d="M607.5 38.33c-39-32.25-104-33.25-104-33.25H301v12.25l43.25 3.75v308.75L301 333.58v12h192.5c52 0 97.75-21.5 120.75-44.25s43.5-63.75 43.5-124.8c0-61.06-11.25-105.95-50.25-138.2m-60 264c-22.25 27.25-56.25 27.5-56.25 27.5H427.5V20.58h51.875s38.125-3 64.27 25.624c24.44 26.76 27.35 74.126 27.35 125.13 0 56.25-1.25 103.75-23.5 131" clip-path="url(#b)"/><path clip-path="url(#b)" d="M771.25 5.08H696v12.5l44 4.5v307.75l-44 4v11.75h170v-11.75l-44-4V22.08l44-4.5V5.08h-75.25z"/><path fill="#5EBEE6" clip-path="url(#b)" d="M344.25 330V21.25L301 17.5V5.25H0v340.5h301v-12zM740 330V22.25l-44-4.5V5.25H503.5s65 1 104 33.25 50.25 77.14 50.25 138.2c0 61.055-20.5 102.06-43.5 124.8s-68.75 44.25-120.75 44.25H696V334l44-4zM547.5 302.5c22.25-27.25 23.5-74.75 23.5-131 0-51-2.913-98.367-27.354-125.13-26.15-28.62-64.27-25.62-64.27-25.62h-51.88V330h63.75s34-.25 56.25-27.5"/><path d="M953.5 252.5h-29.75v85.75s44.25 14.5 113.25 14.5 158-16 158-113c0-88.75-105.5-103.5-119-106s-81.5-7.25-81.5-62.25 59.25-59.25 81.5-59.25 52.75 8.25 52.75 8.25l18 77h30V12.25S1135 0 1075.75 0s-154 9.5-154 105.5c0 81.25 82.893 99.07 113.75 107 30.628 7.873 87.5 12.5 87.5 64.5s-54.5 63-88.5 63-63.6-10.75-63.6-10.75l-17.5-76.75z" clip-path="url(#b)"/></svg>